<?xml version="1.0" encoding="UTF-8" standalone="no"?>
<!-- Created with Inkscape (http://www.inkscape.org/) -->

<svg
   xmlns:dc="http://purl.org/dc/elements/1.1/"
   xmlns:cc="http://creativecommons.org/ns#"
   xmlns:rdf="http://www.w3.org/1999/02/22-rdf-syntax-ns#"
   xmlns:svg="http://www.w3.org/2000/svg"
   xmlns="http://www.w3.org/2000/svg"
   xmlns:xlink="http://www.w3.org/1999/xlink"
   xmlns:sodipodi="http://sodipodi.sourceforge.net/DTD/sodipodi-0.dtd"
   xmlns:inkscape="http://www.inkscape.org/namespaces/inkscape"
   width="256"
   height="256"
   viewBox="0 0 67.733335 67.733333"
   version="1.1"
   id="svg7448"
   inkscape:version="0.92.4 (unknown)"
   sodipodi:docname="llx-guest-icon.svg"
   inkscape:export-filename="/home/daduve/git/bionic/llx-guest/llx-guest-gui.install/usr/share/llx-guest/rsrc/llx-guest-icon.svg.png"
   inkscape:export-xdpi="96"
   inkscape:export-ydpi="96">
  <defs
     id="defs7442">
    <linearGradient
       inkscape:collect="always"
       id="linearGradient1349">
      <stop
         style="stop-color:#bfbfbf;stop-opacity:1"
         offset="0"
         id="stop1345" />
      <stop
         style="stop-color:#808080;stop-opacity:1"
         offset="1"
         id="stop1347" />
    </linearGradient>
    <linearGradient
       gradientTransform="matrix(0.19734331,0,0,-0.19823545,166.77022,195.82034)"
       y2="666.56842"
       x2="-460.2334"
       y1="370.53909"
       x1="-460.2334"
       gradientUnits="userSpaceOnUse"
       id="rect3438-6-0-6-7-2_60_-80">
      <stop
         id="stop29185"
         style="stop-color:#000000"
         offset="0" />
      <stop
         id="stop29187"
         style="stop-color:#000000;stop-opacity:0.5882"
         offset="1" />
    </linearGradient>
    <linearGradient
       gradientTransform="matrix(0.19561848,0,0,-0.19662959,164.39189,195.04925)"
       y2="668.2168"
       x2="-452.13281"
       y1="371.53421"
       x1="-452.13281"
       gradientUnits="userSpaceOnUse"
       id="rect3438-6-0-1-1_60_-262">
      <stop
         id="stop29191"
         style="stop-color:#000000"
         offset="0" />
      <stop
         id="stop29193"
         style="stop-color:#000000;stop-opacity:0.5882"
         offset="1" />
    </linearGradient>
    <linearGradient
       gradientTransform="matrix(0.19817598,0,0,-0.19817598,-75.834945,48.799836)"
       y2="-366.80859"
       x2="765.62701"
       y1="-74.489304"
       x1="765.62701"
       gradientUnits="userSpaceOnUse"
       id="XMLID_140_-06">
      <stop
         id="stop29198"
         style="stop-color:#2f343f;stop-opacity:1"
         offset="0" />
      <stop
         id="stop29200"
         style="stop-color:#2b303a;stop-opacity:1"
         offset="0.3475" />
      <stop
         id="stop29202"
         style="stop-color:#232730;stop-opacity:1"
         offset="0.6063" />
      <stop
         id="stop29204"
         style="stop-color:#1b1e25;stop-opacity:1"
         offset="0.8413" />
      <stop
         id="stop29206"
         style="stop-color:#1b1e25;stop-opacity:1"
         offset="1" />
    </linearGradient>
    <linearGradient
       id="linearGradient7404"
       gradientUnits="userSpaceOnUse"
       x1="-460.2334"
       y1="370.53909"
       x2="-460.2334"
       y2="666.56842"
       gradientTransform="matrix(0.9954,0,0,-0.9999,607.6064,666.5718)">
      <stop
         offset="0"
         style="stop-color:#000000"
         id="stop7400" />
      <stop
         offset="1"
         style="stop-color:#000000;stop-opacity:0.5882"
         id="stop7402" />
    </linearGradient>
    <linearGradient
       id="linearGradient7411"
       gradientUnits="userSpaceOnUse"
       x1="-452.13281"
       y1="371.53421"
       x2="-452.13281"
       y2="668.2168"
       gradientTransform="matrix(0.9867,0,0,-0.9918,595.6101,662.6824)">
      <stop
         offset="0"
         style="stop-color:#000000"
         id="stop7407" />
      <stop
         offset="1"
         style="stop-color:#000000;stop-opacity:0.5882"
         id="stop7409" />
    </linearGradient>
    <linearGradient
       gradientTransform="matrix(0.9996,0,0,-0.9996,-616.0945,-74.9999)"
       y2="-366.80859"
       x2="765.62701"
       y1="-74.489304"
       x1="765.62701"
       gradientUnits="userSpaceOnUse"
       id="linearGradient7424">
      <stop
         id="stop7414"
         style="stop-color:#006cf9;stop-opacity:1"
         offset="0" />
      <stop
         id="stop7416"
         style="stop-color:#0053c2;stop-opacity:1"
         offset="0.3475" />
      <stop
         id="stop7418"
         style="stop-color:#0047a6;stop-opacity:1"
         offset="0.6063" />
      <stop
         id="stop7420"
         style="stop-color:#003884;stop-opacity:1"
         offset="0.8413" />
      <stop
         id="stop7422"
         style="stop-color:#003580;stop-opacity:1"
         offset="1" />
    </linearGradient>
    <linearGradient
       inkscape:collect="always"
       xlink:href="#linearGradient1349"
       id="linearGradient1351"
       x1="-10.455528"
       y1="296.71729"
       x2="-4.1280456"
       y2="296.71729"
       gradientUnits="userSpaceOnUse" />
  </defs>
  <sodipodi:namedview
     id="base"
     pagecolor="#ffffff"
     bordercolor="#666666"
     borderopacity="1.0"
     inkscape:pageopacity="0.0"
     inkscape:pageshadow="2"
     inkscape:zoom="0.72588641"
     inkscape:cx="258.75502"
     inkscape:cy="42.722738"
     inkscape:document-units="mm"
     inkscape:current-layer="layer1"
     showgrid="false"
     fit-margin-top="0"
     fit-margin-left="0"
     fit-margin-right="0"
     fit-margin-bottom="0"
     inkscape:window-width="1920"
     inkscape:window-height="1025"
     inkscape:window-x="1920"
     inkscape:window-y="0"
     inkscape:window-maximized="1"
     units="px"
     borderlayer="true" />
  <metadata
     id="metadata7445">
    <rdf:RDF>
      <cc:Work
         rdf:about="">
        <dc:format>image/svg+xml</dc:format>
        <dc:type
           rdf:resource="http://purl.org/dc/dcmitype/StillImage" />
        <dc:title></dc:title>
      </cc:Work>
    </rdf:RDF>
  </metadata>
  <g
     inkscape:label="Capa 1"
     inkscape:groupmode="layer"
     id="layer1"
     transform="translate(-42.060823,-59.097487)">
    <path
       style="fill:#000000;stroke-width:0.19825529;fill-opacity:0"
       d="m 60.297341,63.561904 h 31.193684 c 7.382828,0 13.368555,5.985327 13.368555,13.368552 v 31.193284 c 0,7.38323 -5.985529,13.36875 -13.368555,13.36875 H 60.297341 c -7.383027,0 -13.368552,-5.98532 -13.368552,-13.36875 V 76.930456 c 0,-7.383225 5.985327,-13.368552 13.368552,-13.368552 z"
       id="XMLID_3584_"
       inkscape:connector-curvature="0" />
    <g
       id="g861"
       transform="matrix(6.0387788,0,0,6.0387788,120.57022,-1669.9855)"
       style="fill:url(#linearGradient1351);fill-opacity:1;stroke:none">
      <path
         inkscape:connector-curvature="0"
         id="path885-7"
         d="m -6.1371327,292.36963 c -0.3673997,0.22048 -0.7958755,0.34992 -1.255546,0.34993 -0.4595306,-10e-6 -0.8877827,-0.12914 -1.2551089,-0.34949 -0.946503,0.81469 -1.7702044,2.4404 -1.8077404,4.34722 h 6.1256997 c -0.037539,-1.90703 -0.860727,-3.53308 -1.8073044,-4.34766 z"
         style="fill:url(#linearGradient1351);fill-opacity:1;stroke:none;stroke-width:0.22367413;stroke-miterlimit:4;stroke-dasharray:none;stroke-opacity:0.25098039" />
      <path
         sodipodi:nodetypes="ccccc"
         inkscape:connector-curvature="0"
         id="path883-5"
         d="m -7.392545,287.15893 c -1.3515146,6e-5 -2.4469876,1.09588 -2.4466004,2.44744 6.51e-5,1.35117 1.0954077,2.44652 2.4466004,2.44653 1.3511905,-1e-5 2.4465328,-1.09536 2.4465959,-2.44653 3.916e-4,-1.35156 -1.0950835,-2.44738 -2.4465959,-2.44744 z"
         style="fill:url(#linearGradient1351);fill-opacity:1;stroke:none;stroke-width:0.22367413;stroke-miterlimit:4;stroke-dasharray:none;stroke-opacity:0.25098039" />
    </g>
    <path
       inkscape:connector-curvature="0"
       id="path887-3"
       d="m 66.057977,88.693637 c -3.673995,-0.401333 -7.284619,-3.128028 -9.252399,-6.986091 -0.851675,-1.669841 -1.284949,-3.083649 -1.438333,-4.693534 -0.166764,-1.750358 0.154601,-2.776959 1.190541,-3.80101 1.449044,-1.432722 3.953335,-2.1183 7.730527,-2.116338 3.378489,0.0017 6.418387,0.52776 8.839687,1.53023 1.077337,0.446026 1.861444,0.606551 2.931207,0.600509 1.05144,-0.0078 1.617222,-0.133804 2.936779,-0.666391 1.069058,-0.431586 2.683768,-0.837471 4.253001,-1.070431 0.869764,-0.129487 1.687263,-0.164017 3.825378,-0.16284 2.414669,0.0011 2.838172,0.01962 3.781469,0.204041 3.420435,0.652696 5.288392,1.993089 5.620312,4.032479 0.240533,1.47663 -0.357072,4.274072 -1.324423,6.199788 -0.972962,1.937292 -2.62797,3.887061 -4.232597,4.986293 -2.200661,1.507629 -4.687451,2.190813 -7.080146,1.945257 -1.67451,-0.171473 -2.813099,-0.657993 -4.184883,-1.787949 -1.701467,-1.401134 -2.531129,-1.801525 -3.733167,-1.801525 -1.202037,0 -2.031699,0.400587 -3.733166,1.801525 -1.373903,1.131447 -2.51002,1.616045 -4.193123,1.788891 -0.518225,0.05297 -1.010435,0.09143 -1.093778,0.08436 -0.08319,-0.0078 -0.462663,-0.04552 -0.842886,-0.0875 z m 3.450374,-5.982013 c 1.011377,-0.258975 1.852379,-0.701195 2.456615,-1.292247 0.703628,-0.688325 0.934783,-1.164604 0.984499,-2.027619 0.0569,-0.985401 -0.186777,-1.59517 -0.934626,-2.340861 -2.042138,-2.036212 -6.307852,-2.064582 -8.361133,-0.05297 -0.796545,0.779358 -0.95966,1.155343 -0.95966,2.211923 0,0.746633 0.03139,0.936744 0.220522,1.290285 0.523561,0.983556 1.7482,1.840097 3.159576,2.209921 0.941924,0.246812 2.47851,0.248381 3.434089,0.0039 z m 16.223149,0 c 1.011377,-0.258975 1.852379,-0.701195 2.456615,-1.292247 0.703628,-0.688325 0.934783,-1.164604 0.984498,-2.027619 0.0569,-0.985401 -0.186776,-1.59517 -0.934625,-2.340861 -2.042138,-2.036212 -6.307852,-2.064582 -8.361094,-0.05297 -0.796584,0.779358 -0.959699,1.155343 -0.959699,2.211923 0,0.746633 0.03139,0.936744 0.220521,1.290285 0.523562,0.983556 1.748201,1.840097 3.159576,2.209921 0.941925,0.246812 2.478511,0.248381 3.43409,0.0039 z"
       style="fill:#333333;fill-opacity:1;stroke:none;stroke-width:0.092177"
       sodipodi:nodetypes="ccccccccccccccccsccccccccccscccccccccscccc" />
  </g>
</svg>
